<svg xmlns="http://www.w3.org/2000/svg" data-name="Ebene 1" viewBox="0 0 841.9 595.3">
  <g data-name="Gruppe 123">
    <path fill="#44e543" d="M132 390.7l26.9-27H289V206.6H132zM240 314.8h-59.3v-59.3h59.3z" data-name="Pfad 190"/>
    <g fill="#333" data-name="Gruppe 51">
      <path d="M393 285.6c0 16.7-11.9 29-28.6 29a25.4 25.4 0 0 1-19.8-8.8v30.9h-11.8v-51.4c0-17.1 12.6-29.5 30.1-29.5s30.1 12.4 30.1 29.8zm-12.1-.3c0-11.2-7.6-19.2-18.1-19.2s-18.2 8-18.2 19.1 7.6 19.2 18.2 19.2 18.1-8 18.1-19.1z" data-name="Pfad 191"/>
      <path d="M413.6 256.9v56.7h-11.8V257z" data-name="Pfad 192"/>
      <path d="M468.7 313.6l-17.1-22.1-17.1 22.1h-13.7l22.3-28.5-22-28.2h13.6l16.9 21.6 16.8-21.6h13.7l-22 28.2 22.3 28.5z" data-name="Pfad 193"/>
      <path d="M542.6 289h-48.4a18.4 18.4 0 0 0 18.7 16c8 0 15-5 17.2-11.9h12a29.8 29.8 0 0 1-29.3 21.6c-17.5 0-30.3-12.3-30.3-29.4s12.8-29.4 30.3-29.4 30.1 12.3 30.2 29.5a18.8 18.8 0 0 1-.4 3.6zm-48-9.1h37c-2-8.4-9.4-14.3-18.7-14.3a18.4 18.4 0 0 0-18.3 14.2z" data-name="Pfad 194"/>
      <path d="M564.3 233.8v79.8h-11.8v-79.8z" data-name="Pfad 195"/>
      <path d="M710 266.8v-10h-12.8v-14.6h-12V257h-10v10h10v38.6a8.1 8.1 0 0 0 8.2 8.1h8.6V302h-4.8v-35z" data-name="Pfad 196"/>
      <path d="M656.6 259.5v-3.3h-11.8v57.4h11.8v-33.8c0-8.5 5.2-13 14-13V257a34.3 34.3 0 0 0-14 2.6z" data-name="Pfad 197"/>
      <path d="M621.4 256.2v5.1a31.4 31.4 0 0 0-18.2-5.5c-17.5 0-30 12.4-30 29.5s11.6 29.4 27.5 29.4c8.6 0 16.2-3.5 20.8-9v8h11.8v-57.5zm-18 48.2c-10.6 0-18.2-8-18.2-19.1s7.6-19.2 18.1-19.2 18.2 8 18.2 19.1-7.6 19.2-18.2 19.2z" data-name="Pfad 198"/>
    </g>
  </g>
</svg>
