<?xml version="1.0" encoding="utf-8"?>
<!-- Generator: Adobe Illustrator 21.0.0, SVG Export Plug-In . SVG Version: 6.00 Build 0)  -->
<svg version="1.1" id="Runtastic" xmlns="http://www.w3.org/2000/svg" xmlns:xlink="http://www.w3.org/1999/xlink" x="0px" y="0px"
	 viewBox="0 0 552.6 160.3" style="enable-background:new 0 0 552.6 160.3;" xml:space="preserve">
<style type="text/css">
	.st0{display:none;fill:#FFFFFF;}
	.st1{fill:#007AFF;}
</style>
<rect x="-0.1" y="-0.2" class="st0" width="552.6" height="160.3"/>
<image style="display:none;overflow:visible;" width="1301" height="398" xlink:href="../../../../../../Dropbox/Screenshots/Screenshot 2017-04-03 14.28.06.png"  transform="matrix(0.975 0 0 0.975 -595.5702 -70.7302)">
</image>
<path id="Logo" class="st1" d="M208.5,111.3c6.2,0,10.8-4.7,11.9-12.3l3.8-27.2h10.9l-6.8,48.2h-10.8l0.5-4.3l-0.3,0.3
	c-3.3,3.3-7.5,5-12.4,5c-9.7,0-16-6.9-16-17.5c0-0.8,0.1-2.3,0.4-4.8l3.8-27h10.8l-4,28.8c-0.1,0.5-0.1,1.3-0.1,2.4
	C200.5,108.3,203.4,111.3,208.5,111.3 M267.1,70.6c-5.1,0-9.2,1.7-12.8,5.1l-0.4,0.3l0.6-4.3h-10.7l-6.8,48.2H248l3.7-26.7
	c1.1-8,5.8-12.8,12.6-12.8c5.1,0,8.4,3.5,8.4,8.9c0,0.4,0,0.9-0.1,1.6c0,0.3-0.1,0.6-0.1,1l-3.9,28h10.9c1.5-11.1,2.6-18.8,3.2-23
	c0.3-2.4,0.5-3.8,0.5-3.9c0.3-2.3,0.4-4,0.4-4.9C283.7,77.5,277.2,70.6,267.1,70.6 M305.8,58.3h-10.8l-6.1,43.3
	c-0.9,6.8-0.1,11.6,2.6,14.6c2.3,2.7,6,3.9,11.3,3.9c2.1,0,4.1-0.1,6-0.2l1.3-9.6h-3.5c-3.3,0-5-0.5-6-1.6c-1.1-1.3-1.4-3.3-0.9-7.4
	l2.8-19.8H314l1.3-9.8h-11.6L305.8,58.3z M399.5,85.8l7.7-7.2c-4.3-5.3-10.3-7.9-17.9-7.9c-5.4,0-9.8,1.4-13.5,4.2
	c-3.6,2.8-5.4,6.4-5.4,11c0,7.1,3.9,11.7,11.7,13.9l7.2,2c3.7,1.1,5.5,2.7,5.5,4.8c0,3.5-2.8,5.2-8.4,5.2c-5.4,0-9.8-2.2-13.2-6.7
	l-7.6,6.8c4.6,6.1,11.1,9.2,19.4,9.2c12.7,0,20.5-5.9,20.5-15.3c0-7-4.2-12-11.8-14.1l-8.3-2.3c-2.9-0.8-4.4-2.3-4.4-4.5
	c0-2.8,3.1-4.9,7.1-4.9C392.6,80,396.4,82,399.5,85.8 M429.7,58.3h-10.8l-6.1,43.3c-0.9,6.8-0.1,11.6,2.6,14.6
	c2.3,2.7,6,3.9,11.3,3.9c2.1,0,4.1-0.1,6-0.2l1.3-9.6h-3.5c-3.3,0-5-0.5-6-1.6c-1.1-1.3-1.4-3.3-0.9-7.4l2.8-19.8h11.6l1.3-9.8
	h-11.6L429.7,58.3z M454.3,51c-1.9,0-3.6,0.7-4.9,2l0,0c-1.3,1.2-2,2.9-2,4.8c0,1.9,0.7,3.7,2,5c1.3,1.3,3.1,2,4.9,2
	c1.9,0,3.6-0.7,4.9-2c1.3-1.3,2-3.1,2-5c0-1.8-0.7-3.5-2-4.8C458,51.7,456.2,51,454.3,51 M451.3,120l6.8-48.2h-10.9l-6.8,48.2H451.3
	z M483.9,111.2c-6.7,0-11.5-5.4-11.5-13c0-4.9,1.5-9.1,4.6-12.5c3.1-3.4,6.7-5.1,11-5.1c5,0,7.9,2.5,10.8,6.7l8.1-7.6
	c-4.2-6.2-10.1-9-18.7-9c-7.4,0-13.8,2.7-19.1,8.1c-5.3,5.3-8,11.9-8,19.8c0,6.7,2,12.1,6.1,16.4c4,4.1,9.2,6.2,15.3,6.2
	c9.1,0,16.5-3.3,21.9-9.8l-6.8-7.3C493,109.2,489.2,111.2,483.9,111.2 M339.8,70.6c6.1,0,10.9,2.6,14,5.9l0.7-4.7h10.5L358,120
	h-10.5l0.5-3.8c-3.8,2.8-8.4,4.9-14.2,4.9c-5.5,0-10-2.1-13.6-6.3c-3.6-4.3-5.3-9.5-5.3-16c0-7.8,2.4-14.5,7.1-19.9
	C326.8,73.4,332.7,70.6,339.8,70.6 M347.2,106.2c2.8-3.4,4.2-7.6,4.2-12.5c0-8.4-4.1-13.1-11.3-13.1c-3.9,0-7.2,1.7-10.1,5.2
	c-2.9,3.5-4.3,7.7-4.3,13c0,7.6,4.1,12.4,10.4,12.4C340.8,111.2,344.5,109.6,347.2,106.2 M156.4,93.5c-1,6.5-3.7,26.5-3.7,26.5h10.9
	l2.7-18.9c1-7,1.4-20.3,19.4-19l1.5-10.9C163.5,69.2,157.5,85.6,156.4,93.5 M66.3,75.2l15.1-14.9c4-3.9,10.5-3.9,14.5,0.1l0.5,0.5
	l6.9-6.8l-0.8-0.8c-7.5-7.6-19.8-7.7-27.5-0.2L59.5,68.3L66.3,75.2z M103.2,68L118,83.1c3.9,4,3.9,10.5-0.1,14.5l-0.6,0.6l6.8,6.9
	l1-1c7.6-7.5,7.7-19.8,0.2-27.5l-15.2-15.4L103.2,68z M73.3,111.9L58.7,97c-3.9-4-3.9-10.5,0.1-14.5l0.5-0.4l-6.8-6.9L51.6,76
	c-7.6,7.5-7.7,19.8-0.2,27.5l14.9,15.2L73.3,111.9z M110.3,105.1l-14.9,14.7c-4,3.9-10.5,3.9-14.5-0.1l-0.7-0.7l-6.9,6.8l1.1,1.1
	c7.5,7.6,19.8,7.7,27.5,0.2l15.3-15L110.3,105.1z"/>
<g>
</g>
<g>
</g>
<g>
</g>
<g>
</g>
<g>
</g>
<g>
</g>
</svg>
